<?xml version="1.0" encoding="UTF-8"?>
<svg xmlns="http://www.w3.org/2000/svg" viewBox="0 0 1600 570" width="1600" height="570" role="img" aria-labelledby="title description" lang="ru"><title id="title">В выбранной области применения анализ исходного состояния и анализ ресурсов поддерживают план развития и план реализации процессов. Все пять категорий информации связаны с продуктом и обоснованием области.</title><desc id="description">Пять связанных результатов планирования по процессу 5.1 ГОСТ Р 56939-2024.</desc><defs><marker id="arrow-blue" markerWidth="12" markerHeight="12" refX="10" refY="6" orient="auto" markerUnits="userSpaceOnUse"><path d="M1 1 L11 6 L1 11 Z" fill="#245dba" /></marker><marker id="arrow-teal" markerWidth="12" markerHeight="12" refX="10" refY="6" orient="auto" markerUnits="userSpaceOnUse"><path d="M1 1 L11 6 L1 11 Z" fill="#147b70" /></marker><marker id="arrow-amber" markerWidth="12" markerHeight="12" refX="10" refY="6" orient="auto" markerUnits="userSpaceOnUse"><path d="M1 1 L11 6 L1 11 Z" fill="#996315" /></marker><marker id="arrow-muted" markerWidth="12" markerHeight="12" refX="10" refY="6" orient="auto" markerUnits="userSpaceOnUse"><path d="M1 1 L11 6 L1 11 Z" fill="#43566c" /></marker></defs><rect x="0" y="0" width="1600" height="570" rx="16" fill="#ffffff" /><rect x="20" y="8" width="1560" height="548" rx="22" fill="#ffffff" stroke="#245dba" stroke-width="3" stroke-dasharray="12 8" /><text x="60" y="53" font-family="Segoe UI, Arial, sans-serif" font-size="36" font-weight="700" fill="#245dba" text-anchor="start"><tspan x="60" dy="0">5.1.3.5 · Область применения</tspan></text><path d="M425 239 V287 H1175 V239" stroke="#245dba" stroke-width="4" fill="none" stroke-linejoin="round" /><line x1="800" y1="287" x2="800" y2="330" stroke="#245dba" stroke-width="4" fill="none" /><path d="M425 360 V330 H1175 V360" stroke="#245dba" stroke-width="4" fill="none" stroke-linejoin="round" /><line x1="425" y1="330" x2="425" y2="355" stroke="#245dba" stroke-width="4" fill="none" marker-end="url(#arrow-blue)" /><line x1="1175" y1="330" x2="1175" y2="355" stroke="#245dba" stroke-width="4" fill="none" marker-end="url(#arrow-blue)" /><rect x="70" y="88" width="710" height="178" rx="16" fill="#edf3fa" /><rect x="70" y="88" width="7" height="178" rx="3" fill="#245dba" /><text x="94" y="126" font-family="Segoe UI, Arial, sans-serif" font-size="28" font-weight="700" fill="#245dba" text-anchor="start"><tspan x="94" dy="0">5.1.3.1</tspan></text><text x="94" y="170.0" font-family="Segoe UI, Arial, sans-serif" font-size="34" font-weight="700" fill="#15334f" text-anchor="start"><tspan x="94" dy="0">Исходное состояние</tspan></text><text x="94" y="212.0" font-family="Segoe UI, Arial, sans-serif" font-size="28" font-weight="600" fill="#43566c" text-anchor="start"><tspan x="94" dy="0">Практики и пробелы</tspan></text><rect x="820" y="88" width="710" height="178" rx="16" fill="#edf3fa" /><rect x="820" y="88" width="7" height="178" rx="3" fill="#245dba" /><text x="844" y="126" font-family="Segoe UI, Arial, sans-serif" font-size="28" font-weight="700" fill="#245dba" text-anchor="start"><tspan x="844" dy="0">5.1.3.2</tspan></text><text x="844" y="170.0" font-family="Segoe UI, Arial, sans-serif" font-size="34" font-weight="700" fill="#15334f" text-anchor="start"><tspan x="844" dy="0">Анализ ресурсов</tspan></text><text x="844" y="212.0" font-family="Segoe UI, Arial, sans-serif" font-size="28" font-weight="600" fill="#43566c" text-anchor="start"><tspan x="844" dy="0">Люди, время, средства</tspan></text><rect x="70" y="365" width="710" height="178" rx="16" fill="#edf3fa" /><rect x="70" y="365" width="7" height="178" rx="3" fill="#245dba" /><text x="94" y="403" font-family="Segoe UI, Arial, sans-serif" font-size="28" font-weight="700" fill="#245dba" text-anchor="start"><tspan x="94" dy="0">5.1.3.3</tspan></text><text x="94" y="447.0" font-family="Segoe UI, Arial, sans-serif" font-size="34" font-weight="700" fill="#15334f" text-anchor="start"><tspan x="94" dy="0">План развития</tspan></text><text x="94" y="489.0" font-family="Segoe UI, Arial, sans-serif" font-size="28" font-weight="600" fill="#43566c" text-anchor="start"><tspan x="94" dy="0">Приоритеты и очередь</tspan></text><rect x="820" y="365" width="710" height="178" rx="16" fill="#edf3fa" /><rect x="820" y="365" width="7" height="178" rx="3" fill="#245dba" /><text x="844" y="403" font-family="Segoe UI, Arial, sans-serif" font-size="28" font-weight="700" fill="#245dba" text-anchor="start"><tspan x="844" dy="0">5.1.3.4</tspan></text><text x="844" y="447.0" font-family="Segoe UI, Arial, sans-serif" font-size="34" font-weight="700" fill="#15334f" text-anchor="start"><tspan x="844" dy="0">План реализации</tspan></text><text x="844" y="489.0" font-family="Segoe UI, Arial, sans-serif" font-size="28" font-weight="600" fill="#43566c" text-anchor="start"><tspan x="844" dy="0">Работы, сроки, участники</tspan></text></svg>
