<?xml version="1.0" encoding="utf-8"?>
<!-- Generator: Adobe Illustrator 25.4.1, SVG Export Plug-In . SVG Version: 6.00 Build 0)  -->
<svg version="1.1" id="Слой_1" xmlns="http://www.w3.org/2000/svg" xmlns:xlink="http://www.w3.org/1999/xlink" x="0px" y="0px"
	 viewBox="0 0 148.5 148.8" style="enable-background:new 0 0 148.5 148.8;" xml:space="preserve">
<style type="text/css">
	.st0{fill:#1D1D1B;}
	.st1{fill:#00629B;}
	.st2{fill:#0684C6;}
	.st3{fill:none;}
	.st4{fill:#00649D;}
	.st5{fill:#0384C7;}
</style>
<g>
	<g>
		<g>
			<path class="st1" d="M20.3,106.7c0,5.1-3.9,8.3-10,8.3H6.4v5.9H0V98.4h10.3C16.5,98.4,20.3,101.6,20.3,106.7z M13.9,106.7
				c0-2.1-1.3-3.3-4-3.3H6.4v6.6h3.5C12.6,110,13.9,108.8,13.9,106.7z"/>
			<path class="st1" d="M22.1,109.6c0-6.8,5.3-11.7,12.5-11.7s12.5,4.9,12.5,11.7s-5.3,11.7-12.5,11.7S22.1,116.4,22.1,109.6z
				 M40.6,109.6c0-3.9-2.7-6.4-6.1-6.4s-6.1,2.5-6.1,6.4s2.7,6.4,6.1,6.4C38,116.1,40.6,113.5,40.6,109.6z"/>
			<path class="st1" d="M49.1,109.6c0-6.8,5.2-11.7,12.4-11.7c4.1,0,7.5,1.5,9.7,4.2l-4,3.7c-1.4-1.7-3.1-2.6-5.3-2.6
				c-3.7,0-6.3,2.6-6.3,6.4c0,3.9,2.6,6.4,6.3,6.4c2.1,0,3.9-0.9,5.3-2.6l4,3.7c-2.2,2.7-5.5,4.2-9.7,4.2
				C54.3,121.3,49.1,116.5,49.1,109.6z"/>
			<path class="st1" d="M95.4,98.4v22.5H89v-8.8h-8.7v8.8h-6.4V98.4h6.4v8.4H89v-8.4H95.4z"/>
			<path class="st1" d="M98.7,109.6c0-6.8,5.3-11.7,12.5-11.7s12.5,4.9,12.5,11.7s-5.3,11.7-12.5,11.7S98.7,116.4,98.7,109.6z
				 M117.3,109.6c0-3.9-2.7-6.4-6.1-6.4s-6.1,2.5-6.1,6.4s2.7,6.4,6.1,6.4C114.7,116.1,117.3,113.5,117.3,109.6z"/>
			<path class="st1" d="M148.5,98.4l-9.3,17.4c-2,3.8-4.9,5.7-8.3,5.7c-1.3,0-2.6-0.3-4-0.8l1.5-4.7c0.9,0.3,1.6,0.4,2.2,0.4
				c1.2,0,2.1-0.5,3-1.7l-8.7-16.2h6.7l5.2,10.9l5.4-10.9L148.5,98.4L148.5,98.4z"/>
		</g>
	</g>
	<g>
		<path class="st2" d="M29.9,130.2c0,1.5-1.1,2.4-2.9,2.4h-1.9v2.2h-0.7v-7H27C28.8,127.8,29.9,128.7,29.9,130.2z M29.1,130.2
			c0-1.1-0.7-1.8-2.1-1.8h-1.9v3.5H27C28.4,131.9,29.1,131.3,29.1,130.2z"/>
		<path class="st2" d="M30.8,132.1c0-1.6,1.1-2.7,2.7-2.7c1.5,0,2.7,1.1,2.7,2.7s-1.1,2.7-2.7,2.7S30.8,133.7,30.8,132.1z
			 M35.4,132.1c0-1.2-0.8-2-1.9-2s-2,0.8-2,2s0.8,2,2,2C34.6,134.2,35.4,133.4,35.4,132.1z"/>
		<path class="st2" d="M37.1,132.1c0-1.6,1.1-2.7,2.7-2.7c0.9,0,1.6,0.4,2,1l-0.5,0.4c-0.4-0.5-0.9-0.8-1.5-0.8c-1.1,0-2,0.8-2,2
			s0.8,2,2,2c0.6,0,1.2-0.2,1.5-0.8l0.5,0.4c-0.4,0.7-1.2,1-2,1C38.3,134.8,37.1,133.7,37.1,132.1z"/>
		<path class="st2" d="M42.7,132.1c0-1.6,1.1-2.7,2.7-2.7c0.9,0,1.6,0.4,2,1l-0.5,0.4c-0.4-0.5-0.9-0.8-1.5-0.8c-1.1,0-2,0.8-2,2
			s0.8,2,2,2c0.6,0,1.2-0.2,1.5-0.8l0.5,0.4c-0.4,0.7-1.2,1-2,1C43.9,134.8,42.7,133.7,42.7,132.1z"/>
		<path class="st2" d="M48.9,129.5h0.7v4.2l3.5-4.2h0.6v5.2H53v-4.2l-3.5,4.2h-0.6V129.5z"/>
		<path class="st2" d="M55.7,129.5h0.7v4.2l3.5-4.2h0.6v5.2h-0.7v-4.2l-3.5,4.2h-0.6V129.5z M56.6,127.5h0.5c0,0.5,0.4,0.9,1,0.9
			s1-0.3,1-0.9h0.5c0,0.8-0.6,1.3-1.5,1.3S56.6,128.3,56.6,127.5z"/>
		<path class="st2" d="M62,132.1c0-1.6,1.1-2.7,2.7-2.7c0.9,0,1.6,0.4,2,1l-0.5,0.4c-0.4-0.5-0.9-0.8-1.5-0.8c-1.1,0-2,0.8-2,2
			s0.8,2,2,2c0.6,0,1.2-0.2,1.5-0.8l0.5,0.4c-0.4,0.7-1.2,1-2,1C63.2,134.8,62,133.7,62,132.1z"/>
		<path class="st2" d="M70.1,132.4h-1.2v2.3h-0.7v-5.2h0.7v2.3h1.2l1.8-2.3h0.8l-2.1,2.5l2.2,2.7H72L70.1,132.4z"/>
		<path class="st2" d="M74,129.5h0.7v4.2l3.5-4.2h0.6v5.2h-0.7v-4.2l-3.5,4.2H74V129.5z"/>
		<path class="st2" d="M80.8,129.5h0.7v4.2l3.5-4.2h0.6v5.2h-0.7v-4.2l-3.5,4.2h-0.6V129.5z M81.7,127.5h0.5c0,0.5,0.4,0.9,1,0.9
			s1-0.3,1-0.9h0.5c0,0.8-0.6,1.3-1.5,1.3C82.3,128.8,81.7,128.3,81.7,127.5z"/>
		<path class="st2" d="M90.3,129.5H91v2.3h3.3v-2.3H95v5.2h-0.7v-2.3H91v2.3h-0.7V129.5z"/>
		<path class="st2" d="M96.5,132.1c0-1.6,1.1-2.7,2.7-2.7c1.5,0,2.7,1.1,2.7,2.7s-1.1,2.7-2.7,2.7S96.5,133.7,96.5,132.1z
			 M101.1,132.1c0-1.2-0.8-2-1.9-2s-2,0.8-2,2s0.8,2,2,2C100.3,134.2,101.1,133.4,101.1,132.1z"/>
		<path class="st2" d="M107.7,133.3c0,0.9-0.7,1.4-2,1.4h-2.4v-5.2h2.3c1.2,0,1.9,0.5,1.9,1.4c0,0.6-0.3,1-0.9,1.2
			C107.4,132.2,107.7,132.6,107.7,133.3z M104,131.8h1.6c0.8,0,1.3-0.3,1.3-0.9s-0.5-0.9-1.3-0.9H104V131.8z M107,133.3
			c0-0.6-0.4-0.9-1.3-0.9H104v1.8h1.7C106.6,134.2,107,133.9,107,133.3z"/>
		<path class="st2" d="M113.6,133c0,1.1-0.8,1.8-2.1,1.7h-2.1v-5.2h0.7v1.8h1.5C112.9,131.4,113.6,132,113.6,133z M112.9,133
			c0-0.8-0.5-1.1-1.5-1.1h-1.3v2.3h1.3C112.4,134.2,112.9,133.8,112.9,133z M114.5,129.5h0.7v5.2h-0.7V129.5z"/>
		<path class="st2" d="M117.2,129.5h0.7v4.2l3.5-4.2h0.6v5.2h-0.7v-4.2l-3.5,4.2h-0.6V129.5z M118.1,127.5h0.5c0,0.5,0.4,0.9,1,0.9
			s1-0.3,1-0.9h0.5c0,0.8-0.6,1.3-1.5,1.3S118.1,128.3,118.1,127.5z"/>
		<path class="st2" d="M45.5,141.5l-2.6,5.9c-0.4,1-1,1.4-1.7,1.4c-0.5,0-1-0.2-1.3-0.5l0.3-0.5c0.3,0.3,0.6,0.4,1,0.4
			c0.5,0,0.8-0.2,1.1-0.9l0.2-0.5l-2.3-5.2h0.7l2,4.5l2-4.5L45.5,141.5L45.5,141.5z"/>
		<path class="st2" d="M46.6,141.5h0.7v2.3h3.3v-2.3h0.7v5.2h-0.7v-2.3h-3.3v2.3h-0.7V141.5z"/>
		<path class="st2" d="M53.3,141.5H54v4.2l3.5-4.2h0.6v5.2h-0.7v-4.2l-3.5,4.2h-0.6V141.5z"/>
		<path class="st2" d="M64.6,145.3c0,0.9-0.7,1.4-2,1.4h-2.4v-5.2h2.3c1.2,0,1.9,0.5,1.9,1.4c0,0.6-0.3,1-0.9,1.2
			C64.2,144.2,64.6,144.6,64.6,145.3z M60.9,143.8h1.6c0.8,0,1.3-0.3,1.3-0.9s-0.5-0.9-1.3-0.9h-1.6V143.8z M63.9,145.2
			c0-0.6-0.4-0.9-1.3-0.9h-1.7v1.8h1.7C63.4,146.2,63.9,145.9,63.9,145.2z"/>
		<path class="st2" d="M70.8,144.3h-4.4c0.1,1.1,0.9,1.8,2.1,1.8c0.6,0,1.2-0.2,1.6-0.7l0.4,0.5c-0.5,0.6-1.2,0.9-2,0.9
			c-1.6,0-2.8-1.1-2.8-2.7s1.1-2.7,2.6-2.7s2.5,1.1,2.5,2.7C70.8,144.1,70.8,144.2,70.8,144.3z M66.4,143.8h3.7
			c-0.1-1-0.8-1.7-1.9-1.7C67.3,142,66.5,142.7,66.4,143.8z"/>
		<path class="st2" d="M77.7,144.1c0,1.6-1.1,2.7-2.6,2.7c-0.8,0-1.5-0.4-2-1v2.9h-0.7v-7.2h0.7v1c0.4-0.7,1.2-1.1,2-1.1
			C76.6,141.4,77.7,142.5,77.7,144.1z M77,144.1c0-1.2-0.9-2-2-2s-2,0.8-2,2s0.8,2,2,2C76.1,146.1,77,145.3,77,144.1z"/>
		<path class="st2" d="M78.7,144.1c0-1.6,1.1-2.7,2.7-2.7c0.9,0,1.6,0.4,2,1l-0.5,0.4c-0.4-0.5-0.9-0.8-1.5-0.8c-1.1,0-2,0.8-2,2
			s0.8,2,2,2c0.6,0,1.2-0.2,1.5-0.8l0.5,0.4c-0.4,0.7-1.2,1-2,1C79.8,146.7,78.7,145.7,78.7,144.1z"/>
		<path class="st2" d="M84.8,141.5h0.7v4.2l3.5-4.2h0.6v5.2h-0.7v-4.2l-3.5,4.2h-0.6V141.5z"/>
		<path class="st2" d="M95.4,142.1h-2v4.6h-0.7v-4.6h-2v-0.6h4.7V142.1z"/>
		<path class="st2" d="M101,144.3h-4.4c0.1,1.1,0.9,1.8,2.1,1.8c0.6,0,1.2-0.2,1.6-0.7l0.4,0.5c-0.5,0.6-1.2,0.9-2,0.9
			c-1.6,0-2.8-1.1-2.8-2.7s1.1-2.7,2.6-2.7s2.5,1.1,2.5,2.7C101,144.1,101,144.2,101,144.3z M96.6,143.8h3.7c-0.1-1-0.8-1.7-1.9-1.7
			S96.7,142.7,96.6,143.8z"/>
		<path class="st2" d="M106.2,142.1h-2v4.6h-0.7v-4.6h-2v-0.6h4.7V142.1z"/>
	</g>
	<g>
		<path class="st3" d="M77.2,43.5h6.1c6.6,0,11.9-5.5,11.6-12.1c-0.3-6.2-5.7-11-11.9-11H31.2h28.1L77.2,43.5z"/>
		<path class="st1" d="M83.3,63.9H64.7l20.7,26.8h28.2L92,62.7C89.2,63.4,86.3,63.9,83.3,63.9z"/>
		<polygon class="st1" points="59.2,20.3 31.1,20.3 31,20.3 49,43.5 77.2,43.5 		"/>
		<path class="st2" d="M115.2,31.2C114.8,13.8,100.1,0,82.7,0H31.1v20.3l0,0l0,0l0,0h51.8c6.2,0,11.6,4.8,11.9,11
			c0.3,6.6-5,12.1-11.6,12.1h-6.1H48.9H31v8.4v11.9l0,0v26.8h22.8V63.8h10.8h18.6c3,0,5.9-0.4,8.7-1.2
			C105.6,58.8,115.5,46.1,115.2,31.2z"/>
	</g>
</g>
</svg>
