<?xml version="1.0" encoding="utf-8"?>
<!-- Generator: Adobe Illustrator 25.4.1, SVG Export Plug-In . SVG Version: 6.00 Build 0)  -->
<svg version="1.1" id="Слой_1" xmlns="http://www.w3.org/2000/svg" xmlns:xlink="http://www.w3.org/1999/xlink" x="0px" y="0px"
	 viewBox="0 0 162.6 53.3" style="enable-background:new 0 0 162.6 53.3;" xml:space="preserve">
<style type="text/css">
	.st0{fill:#1D1D1B;}
	.st1{fill:#00629B;}
	.st2{fill:#0684C6;}
	.st3{fill:none;}
	.st4{fill:#00649D;}
	.st5{fill:#0384C7;}
</style>
<g>
	<g>
		<path class="st3" d="M26.5,24.9H30c3.8,0,6.8-3.1,6.6-7c-0.2-3.6-3.3-6.3-6.8-6.3H0.1h16.1L26.5,24.9z"/>
		<path class="st1" d="M30,36.6H19.3L31.2,52h16.2L35,36C33.4,36.3,31.7,36.6,30,36.6z"/>
		<polygon class="st1" points="16.2,11.7 0.1,11.7 0,11.7 10.3,24.9 26.5,24.9 		"/>
		<path class="st2" d="M29.6,0H0v11.6l0,0l0,0l0,0h29.7c3.6,0,6.7,2.8,6.8,6.3c0.2,3.8-2.9,7-6.6,7h-3.5H10.3H0v4.8v6.8v15.3h13.1
			V36.5h6.2H30c1.7,0,3.4-0.2,5-0.7c7.8-2.2,13.5-9.5,13.3-18C48,7.9,39.6,0,29.6,0z"/>
	</g>
	<g>
		<g>
			<path class="st4" d="M71.4,22.7c0,3.6-2.7,5.9-7.1,5.9h-2.8v4.2H57v-16h7.3C68.7,16.8,71.4,19.1,71.4,22.7z M66.9,22.7
				c0-1.5-0.9-2.4-2.8-2.4h-2.5V25h2.5C65.9,25.1,66.9,24.2,66.9,22.7z"/>
			<path class="st4" d="M72.7,24.8c0-4.8,3.8-8.3,8.9-8.3c5.1,0,8.9,3.5,8.9,8.3s-3.8,8.3-8.9,8.3S72.7,29.6,72.7,24.8z M85.9,24.8
				c0-2.8-1.9-4.6-4.3-4.6s-4.3,1.8-4.3,4.6s1.9,4.6,4.3,4.6C84,29.4,85.9,27.6,85.9,24.8z"/>
			<path class="st4" d="M91.9,24.8c0-4.9,3.7-8.3,8.8-8.3c2.9,0,5.3,1.1,6.9,3l-2.9,2.6c-1-1.2-2.2-1.9-3.8-1.9
				c-2.6,0-4.5,1.8-4.5,4.6s1.8,4.6,4.5,4.6c1.5,0,2.8-0.7,3.8-1.9l2.9,2.6c-1.6,1.9-3.9,3-6.9,3C95.6,33.1,91.9,29.7,91.9,24.8z"/>
			<path class="st4" d="M124.8,16.8v16h-4.5v-6.2h-6.2v6.2h-4.5v-16h4.5v6h6.2v-6H124.8z"/>
			<path class="st4" d="M127.2,24.8c0-4.8,3.8-8.3,8.9-8.3s8.9,3.5,8.9,8.3s-3.8,8.3-8.9,8.3S127.2,29.6,127.2,24.8z M140.4,24.8
				c0-2.8-1.9-4.6-4.3-4.6s-4.3,1.8-4.3,4.6s1.9,4.6,4.3,4.6S140.4,27.6,140.4,24.8z"/>
			<path class="st4" d="M162.6,16.8L156,29.2c-1.4,2.7-3.5,4-5.9,4c-0.9,0-1.9-0.2-2.8-0.6l1.1-3.3c0.6,0.2,1.1,0.3,1.6,0.3
				c0.9,0,1.5-0.4,2.1-1.2l-6.2-11.5h4.8l3.7,7.7l3.9-7.7L162.6,16.8L162.6,16.8z"/>
		</g>
	</g>
	<g>
		<path class="st5" d="M62.2,40.1c0,1-0.8,1.7-2,1.7h-1.4v1.6h-0.4v-5h1.8C61.5,38.5,62.2,39.1,62.2,40.1z M61.9,40.1
			c0-0.9-0.6-1.3-1.6-1.3h-1.4v2.7h1.4C61.3,41.5,61.9,41,61.9,40.1z"/>
		<path class="st5" d="M63,41.6c0-1.1,0.8-1.9,1.8-1.9s1.8,0.8,1.8,1.9s-0.8,1.9-1.8,1.9S63,42.7,63,41.6z M66.3,41.6
			c0-0.9-0.6-1.6-1.5-1.6s-1.5,0.6-1.5,1.6s0.6,1.6,1.5,1.6S66.3,42.5,66.3,41.6z"/>
		<path class="st5" d="M67.4,41.6c0-1.1,0.8-1.9,1.9-1.9c0.6,0,1.1,0.2,1.4,0.7l-0.3,0.2c-0.3-0.4-0.7-0.5-1.1-0.5
			c-0.9,0-1.5,0.6-1.5,1.6s0.6,1.6,1.5,1.6c0.5,0,0.9-0.2,1.1-0.5l0.3,0.2c-0.3,0.5-0.8,0.7-1.4,0.7C68.2,43.4,67.4,42.7,67.4,41.6z
			"/>
		<path class="st5" d="M71.4,41.6c0-1.1,0.8-1.9,1.9-1.9c0.6,0,1.1,0.2,1.4,0.7l-0.3,0.2c-0.3-0.4-0.7-0.5-1.1-0.5
			c-0.9,0-1.5,0.6-1.5,1.6s0.6,1.6,1.5,1.6c0.5,0,0.9-0.2,1.1-0.5l0.3,0.2c-0.3,0.5-0.8,0.7-1.4,0.7C72.2,43.4,71.4,42.7,71.4,41.6z
			"/>
		<path class="st5" d="M75.7,39.7H76v3.1l2.6-3.1h0.3v3.7h-0.3v-3.1L76,43.4h-0.3V39.7z"/>
		<path class="st5" d="M80.5,39.7h0.3v3.1l2.6-3.1h0.3v3.7h-0.4v-3.1l-2.6,3.1h-0.3L80.5,39.7L80.5,39.7z M81.2,38.3h0.3
			c0,0.4,0.3,0.6,0.7,0.6s0.7-0.2,0.7-0.6h0.3c0,0.5-0.4,0.9-1,0.9C81.6,39.2,81.2,38.8,81.2,38.3z"/>
		<path class="st5" d="M85,41.6c0-1.1,0.8-1.9,1.9-1.9c0.6,0,1.1,0.2,1.4,0.7L88,40.6c-0.3-0.4-0.7-0.5-1.1-0.5
			c-0.9,0-1.5,0.6-1.5,1.6s0.6,1.6,1.5,1.6c0.5,0,0.9-0.2,1.1-0.5l0.3,0.2c-0.3,0.5-0.8,0.7-1.4,0.7C85.8,43.4,85,42.7,85,41.6z"/>
		<path class="st5" d="M90.6,41.7h-0.9v1.7h-0.4v-3.7h0.4v1.7h0.9l1.4-1.7h0.4l-1.5,1.8l1.6,1.9h-0.4L90.6,41.7z"/>
		<path class="st5" d="M93.3,39.7h0.4v3.1l2.6-3.1h0.3v3.7h-0.4v-3.1l-2.6,3.1h-0.3V39.7z"/>
		<path class="st5" d="M98.2,39.7h0.4v3.1l2.6-3.1h0.3v3.7h-0.4v-3.1l-2.6,3.1h-0.3V39.7z M98.8,38.3h0.3c0,0.4,0.3,0.6,0.7,0.6
			s0.7-0.2,0.7-0.6h0.3c0,0.5-0.4,0.9-1,0.9S98.8,38.8,98.8,38.3z"/>
		<path class="st5" d="M104.8,39.7h0.4v1.7h2.5v-1.7h0.4v3.7h-0.4v-1.7h-2.5v1.7h-0.4V39.7z"/>
		<path class="st5" d="M109.2,41.6c0-1.1,0.8-1.9,1.9-1.9s1.9,0.8,1.9,1.9s-0.8,1.9-1.9,1.9S109.2,42.7,109.2,41.6z M112.5,41.6
			c0-0.9-0.6-1.6-1.5-1.6s-1.5,0.6-1.5,1.6s0.6,1.6,1.5,1.6S112.5,42.5,112.5,41.6z"/>
		<path class="st5" d="M117.1,42.4c0,0.6-0.4,1-1.4,1h-1.6v-3.7h1.6c0.8,0,1.3,0.3,1.3,0.9c0,0.4-0.3,0.7-0.7,0.9
			C116.8,41.6,117.1,41.9,117.1,42.4z M114.4,41.4h1.2c0.6,0,1-0.2,1-0.7s-0.4-0.7-1-0.7h-1.2V41.4z M116.7,42.4
			c0-0.5-0.3-0.7-1-0.7h-1.3v1.4h1.2C116.3,43.1,116.7,42.9,116.7,42.4z"/>
		<path class="st5" d="M121.2,42.2c0,0.8-0.5,1.2-1.5,1.2h-1.4v-3.7h0.4V41h1.1C120.7,41.1,121.2,41.5,121.2,42.2z M120.8,42.2
			c0-0.6-0.4-0.9-1.1-0.9h-1v1.8h1C120.4,43.2,120.8,42.8,120.8,42.2z M121.9,39.7h0.4v3.7h-0.4V39.7z"/>
		<path class="st5" d="M123.7,39.7h0.4v3.1l2.6-3.1h0.3v3.7h-0.4v-3.1l-2.6,3.1h-0.3V39.7z M124.4,38.3h0.3c0,0.4,0.3,0.6,0.7,0.6
			s0.7-0.2,0.7-0.6h0.3c0,0.5-0.4,0.9-1,0.9C124.8,39.2,124.4,38.8,124.4,38.3z"/>
		<path class="st5" d="M61.3,48.2l-1.9,4.2c-0.3,0.7-0.7,0.9-1.2,0.9c-0.3,0-0.6-0.1-0.9-0.3l0.2-0.3c0.2,0.2,0.4,0.3,0.7,0.3
			c0.3,0,0.6-0.2,0.8-0.7l0.2-0.5l-1.7-3.7h0.4l1.5,3.3l1.5-3.3L61.3,48.2L61.3,48.2z"/>
		<path class="st5" d="M62.2,48.2h0.3v1.7H65v-1.7h0.3v3.7H65v-1.7h-2.5v1.7h-0.3V48.2z"/>
		<path class="st5" d="M66.9,48.2h0.3v3.1l2.6-3.1h0.3v3.7h-0.3v-3.1l-2.6,3.1h-0.3V48.2z"/>
		<path class="st5" d="M74.8,50.9c0,0.6-0.4,1-1.4,1h-1.6v-3.7h1.6c0.8,0,1.3,0.3,1.3,0.9c0,0.4-0.3,0.7-0.7,0.9
			C74.5,50.1,74.8,50.4,74.8,50.9z M72.1,49.9h1.2c0.6,0,1-0.2,1-0.7s-0.3-0.7-1-0.7h-1.2V49.9z M74.4,50.9c0-0.5-0.3-0.7-1-0.7
			h-1.3v1.4h1.2C74.1,51.6,74.4,51.4,74.4,50.9z"/>
		<path class="st5" d="M79.2,50.2H76c0,0.9,0.7,1.5,1.6,1.5c0.5,0,0.9-0.2,1.2-0.5l0.2,0.2c-0.3,0.4-0.8,0.6-1.4,0.6
			c-1.1,0-1.9-0.8-1.9-1.9s0.8-1.9,1.8-1.9S79.3,49,79.2,50.2C79.2,50.1,79.2,50.1,79.2,50.2z M76,49.9h2.8
			c-0.1-0.8-0.6-1.4-1.4-1.4S76.1,49.1,76,49.9z"/>
		<path class="st5" d="M84.1,50.1c0,1.1-0.8,1.9-1.8,1.9c-0.6,0-1.2-0.3-1.5-0.9v2.2h-0.3v-5.1h0.3v0.9c0.3-0.6,0.8-0.9,1.5-0.9
			C83.3,48.2,84.1,49,84.1,50.1z M83.7,50.1c0-0.9-0.6-1.6-1.5-1.6s-1.5,0.6-1.5,1.6s0.6,1.6,1.5,1.6S83.7,51,83.7,50.1z"/>
		<path class="st5" d="M84.8,50.1c0-1.1,0.8-1.9,1.9-1.9c0.6,0,1.1,0.2,1.4,0.7l-0.3,0.2c-0.3-0.4-0.7-0.5-1.1-0.5
			c-0.9,0-1.5,0.6-1.5,1.6s0.6,1.6,1.5,1.6c0.5,0,0.9-0.2,1.1-0.5l0.3,0.2c-0.3,0.5-0.8,0.7-1.4,0.7C85.6,51.9,84.8,51.2,84.8,50.1z
			"/>
		<path class="st5" d="M89.1,48.2h0.4v3.1l2.6-3.1h0.3v3.7H92v-3.1l-2.6,3.1h-0.3V48.2z"/>
		<path class="st5" d="M96.5,48.5H95v3.4h-0.4v-3.4h-1.4v-0.3h3.2L96.5,48.5L96.5,48.5z"/>
		<path class="st5" d="M100.4,50.2h-3.2c0,0.9,0.7,1.5,1.6,1.5c0.5,0,0.9-0.2,1.2-0.5l0.2,0.2c-0.3,0.4-0.8,0.6-1.4,0.6
			c-1.1,0-1.9-0.8-1.9-1.9s0.8-1.9,1.8-1.9s1.8,0.8,1.8,1.9C100.4,50.1,100.4,50.1,100.4,50.2z M97.2,49.9h2.8
			c-0.1-0.8-0.6-1.4-1.4-1.4C97.8,48.5,97.2,49.1,97.2,49.9z"/>
		<path class="st5" d="M104,48.5h-1.4v3.4h-0.4v-3.4h-1.4v-0.3h3.2L104,48.5L104,48.5z"/>
	</g>
</g>
</svg>
