<?xml version="1.0" encoding="utf-8"?>
<!-- Generator: Adobe Illustrator 25.4.1, SVG Export Plug-In . SVG Version: 6.00 Build 0)  -->
<svg version="1.1" id="Слой_1" xmlns="http://www.w3.org/2000/svg" xmlns:xlink="http://www.w3.org/1999/xlink" x="0px" y="0px"
	 viewBox="0 0 41.6 74.7" style="enable-background:new 0 0 41.6 74.7;" xml:space="preserve">
<style type="text/css">
	.st0{fill:#1D1D1B;}
	.st1{fill:#00629B;}
	.st2{fill:#0684C6;}
	.st3{fill:none;}
	.st4{fill:#00649D;}
	.st5{fill:#0384C7;}
</style>
<g>
	<g>
		<g>
			<path class="st1" d="M13.1,52.8c0,2.5-1.9,4.1-5,4.1H6.2v2.9H3V48.7h5.1C11.2,48.7,13.1,50.3,13.1,52.8z M9.9,52.8
				c0-1-0.7-1.6-2-1.6H6.1v3.3h1.8C9.3,54.4,9.9,53.8,9.9,52.8z"/>
			<path class="st1" d="M14,54.3c0-3.3,2.6-5.8,6.2-5.8c3.6,0,6.2,2.5,6.2,5.8s-2.6,5.8-6.2,5.8S14,57.6,14,54.3z M23.2,54.3
				c0-1.9-1.3-3.2-3-3.2s-3,1.3-3,3.2c0,1.9,1.3,3.2,3,3.2S23.2,56.2,23.2,54.3z"/>
			<path class="st1" d="M27.4,54.3c0-3.4,2.6-5.8,6.1-5.8c2,0,3.7,0.8,4.8,2.1l-2,1.8c-0.7-0.8-1.6-1.3-2.6-1.3
				c-1.8,0-3.1,1.3-3.1,3.2s1.3,3.2,3.1,3.2c1.1,0,1.9-0.5,2.6-1.3l2,1.8c-1.1,1.4-2.7,2.1-4.8,2.1C30,60.1,27.4,57.6,27.4,54.3z"/>
			<path class="st1" d="M12.9,63.2v11.1H9.7V70H5.4v4.3H2.2V63.2h3.2v4.2h4.3v-4.2H12.9z"/>
			<path class="st1" d="M14.6,68.8c0-3.3,2.6-5.8,6.2-5.8c3.6,0,6.2,2.5,6.2,5.8s-2.6,5.8-6.2,5.8S14.6,72.1,14.6,68.8z M23.8,68.8
				c0-1.9-1.3-3.2-3-3.2s-3,1.3-3,3.2c0,1.9,1.3,3.2,3,3.2S23.8,70.7,23.8,68.8z"/>
			<path class="st1" d="M39.2,63.2l-4.6,8.6c-1,1.9-2.4,2.8-4.1,2.8c-0.6,0-1.3-0.1-2-0.4l0.8-2.3c0.4,0.1,0.8,0.2,1.1,0.2
				c0.6,0,1.1-0.3,1.5-0.9l-4.3-8h3.3l2.6,5.4l2.7-5.4L39.2,63.2L39.2,63.2z"/>
		</g>
	</g>
	<g>
		<path class="st3" d="M22.8,21.5h3c3.2,0,5.9-2.7,5.7-6c-0.1-3.1-2.8-5.5-5.9-5.5H0h13.9L22.8,21.5z"/>
		<path class="st1" d="M25.8,31.6h-9.2l10.2,13.2h13.9L30,31C28.7,31.4,27.3,31.6,25.8,31.6z"/>
		<polygon class="st1" points="13.9,10.1 0,10.1 -0.1,10.1 8.8,21.5 22.8,21.5 		"/>
		<path class="st2" d="M25.5,0H0v10l0,0l0,0l0,0h25.6c3.1,0,5.8,2.4,5.9,5.5c0.2,3.3-2.5,6-5.7,6h-3h-14h-8.9v4.1v5.9l0,0v13.3h11.3
			V31.6h5.4h9.2c1.5,0,2.9-0.2,4.3-0.6c6.7-1.9,11.7-8.2,11.5-15.6C41.4,6.8,34.1,0,25.5,0z"/>
	</g>
</g>
</svg>
