<?xml version="1.0" encoding="utf-8"?>
<!-- Generator: Adobe Illustrator 25.4.1, SVG Export Plug-In . SVG Version: 6.00 Build 0)  -->
<svg version="1.1" id="Слой_1" xmlns="http://www.w3.org/2000/svg" xmlns:xlink="http://www.w3.org/1999/xlink" x="0px" y="0px"
	 viewBox="0 0 162.7 51.9" style="enable-background:new 0 0 162.7 51.9;" xml:space="preserve">
<style type="text/css">
	.st0{fill:#1D1D1B;}
	.st1{fill:#00629B;}
	.st2{fill:#0684C6;}
	.st3{fill:none;}
	.st4{fill:#00649D;}
	.st5{fill:#0384C7;}
</style>
<g>
	<g>
		<path class="st3" d="M26.4,24.9h3.5c3.8,0,6.8-3.1,6.6-7c-0.2-3.6-3.3-6.3-6.8-6.3H0h16.1L26.4,24.9z"/>
		<path class="st1" d="M29.9,36.6H19.3l11.8,15.3h16.2l-12.4-16C33.3,36.3,31.6,36.6,29.9,36.6z"/>
		<polygon class="st1" points="16.1,11.6 0,11.6 0,11.6 10.2,24.9 26.4,24.9 		"/>
		<path class="st2" d="M29.5,0H0v11.6l0,0l0,0l0,0h29.7c3.6,0,6.7,2.8,6.8,6.3c0.2,3.8-2.9,7-6.6,7h-3.5H10.2H0v4.8v6.8v15.3h13.1
			V36.5h6.2H30c1.7,0,3.4-0.2,5-0.7c7.8-2.2,13.5-9.5,13.3-18C48,7.8,39.5,0,29.5,0z"/>
	</g>
	<g>
		<g>
			<path class="st4" d="M71.4,32.9c0,3.6-2.8,5.9-7.1,5.9h-2.8V43H57V27h7.3C68.7,27,71.4,29.3,71.4,32.9z M66.8,32.9
				c0-1.5-0.9-2.4-2.8-2.4h-2.5v4.7H64C65.9,35.3,66.8,34.4,66.8,32.9z"/>
			<path class="st4" d="M72.6,35c0-4.8,3.8-8.3,8.9-8.3s8.9,3.5,8.9,8.3s-3.8,8.3-8.9,8.3S72.6,39.8,72.6,35z M85.9,35
				c0-2.8-1.9-4.6-4.3-4.6c-2.4,0-4.3,1.8-4.3,4.6s1.9,4.6,4.3,4.6C84,39.6,85.9,37.8,85.9,35z"/>
			<path class="st4" d="M91.9,35c0-4.9,3.7-8.3,8.8-8.3c2.9,0,5.3,1.1,6.9,3l-2.9,2.6c-1-1.2-2.2-1.9-3.8-1.9
				c-2.6,0-4.5,1.8-4.5,4.6c0,2.8,1.8,4.6,4.5,4.6c1.5,0,2.8-0.7,3.8-1.9l2.9,2.6c-1.6,1.9-3.9,3-6.9,3C95.6,43.3,91.9,39.9,91.9,35
				z"/>
			<path class="st4" d="M124.8,27v16h-4.5v-6.2h-6.2V43h-4.5V27h4.5v6h6.2v-6H124.8z"/>
			<path class="st4" d="M127.2,35c0-4.8,3.8-8.3,8.9-8.3c5.1,0,8.9,3.5,8.9,8.3s-3.8,8.3-8.9,8.3C131,43.3,127.2,39.8,127.2,35z
				 M140.4,35c0-2.8-1.9-4.6-4.3-4.6s-4.3,1.8-4.3,4.6s1.9,4.6,4.3,4.6C138.5,39.6,140.4,37.8,140.4,35z"/>
			<path class="st4" d="M162.6,27L156,39.4c-1.4,2.7-3.5,4-5.9,4c-0.9,0-1.9-0.2-2.8-0.6l1.1-3.3c0.6,0.2,1.1,0.3,1.6,0.3
				c0.9,0,1.5-0.4,2.1-1.2l-6.2-11.5h4.8l3.7,7.7l3.9-7.7L162.6,27L162.6,27z"/>
		</g>
	</g>
</g>
</svg>
